<svg width="64" height="64" viewBox="0 0 64 64" xmlns="http://www.w3.org/2000/svg"><path d="M0 10C0 4.477 4.475 0 10 0h44c5.523 0 10 4.475 10 10v44c0 5.523-4.475 10-10 10H10C4.477 64 0 59.525 0 54V10zm7.01 32.29l-.961 9.617 3.846.481.601-5.41.12-.12L23.36 59.6l3.366-3.365-16.83-16.83L7.01 42.29zm47.963-31.133c-5.505-5.506-12.26-5.53-16.588-1.203-4.328 4.328-4.304 11.084 1.202 16.59 5.505 5.505 12.261 5.529 16.589 1.201 4.327-4.327 4.303-11.083-1.203-16.588zM37.182 28.948c-5.505-5.506-12.26-5.53-16.588-1.203-4.328 4.328-4.304 11.083 1.202 16.589 5.506 5.506 12.261 5.53 16.589 1.202 4.327-4.327 4.303-11.083-1.202-16.589l-.001.001zm5.77-5.77c-3.942-3.943-3.966-8.055-1.682-10.339 2.284-2.283 6.395-2.26 10.338 1.683 3.942 3.943 3.967 8.054 1.683 10.338-2.284 2.284-6.396 2.26-10.338-1.683l-.001.001zm-17.79 17.79c-3.943-3.943-3.967-8.054-1.683-10.338 2.284-2.284 6.395-2.26 10.338 1.683 3.943 3.943 3.967 8.054 1.683 10.338-2.284 2.284-6.395 2.26-10.338-1.683z" fill="#000" fill-rule="evenodd"/></svg>
